<?xml version="1.0" standalone="no"?>
<!DOCTYPE svg PUBLIC "-//W3C//DTD SVG 20010904//EN"
 "http://www.w3.org/TR/2001/REC-SVG-20010904/DTD/svg10.dtd">
<svg version="1.0" xmlns="http://www.w3.org/2000/svg"
 width="200.000000pt" height="200.000000pt" viewBox="0 0 200.000000 200.000000"
 preserveAspectRatio="xMidYMid meet">
<metadata>
Created by potrace 1.11, written by Peter Selinger 2001-2013
</metadata><g><rect x="0" y="0" width="200" height="200" fill="#ffffff" />
<g transform="translate(0.000000,200.000000) scale(0.021368,-0.021368)"
fill="#000000" stroke="none">
<path d="M720 7800 l0 -840 840 0 840 0 0 840 0 840 -840 0 -840 0 0 -840z
m1440 0 l0 -600 -600 0 -600 0 0 600 0 600 600 0 600 0 0 -600z"/>
<path d="M1200 7800 l0 -360 360 0 360 0 0 360 0 360 -360 0 -360 0 0 -360z"/>
<path d="M2880 8520 l0 -120 -120 0 -120 0 0 -120 0 -120 120 0 120 0 0 -120
0 -120 -120 0 -120 0 0 -120 0 -120 240 0 240 0 0 -360 0 -360 120 0 120 0 0
360 0 360 120 0 120 0 0 -120 0 -120 120 0 120 0 0 -120 0 -120 -120 0 -120 0
0 -360 0 -360 120 0 120 0 0 120 0 120 120 0 120 0 0 -120 0 -120 120 0 120 0
0 120 0 120 120 0 120 0 0 120 0 120 120 0 120 0 0 120 0 120 120 0 120 0 0
-240 0 -240 -120 0 -120 0 0 -120 0 -120 -120 0 -120 0 0 -120 0 -120 -120 0
-120 0 0 -120 0 -120 -120 0 -120 0 0 -120 0 -120 120 0 120 0 0 -120 0 -120
-360 0 -360 0 0 240 0 240 120 0 120 0 0 120 0 120 -240 0 -240 0 0 -120 0
-120 -120 0 -120 0 0 240 0 240 120 0 120 0 0 120 0 120 -600 0 -600 0 0 -120
0 -120 240 0 240 0 0 -120 0 -120 120 0 120 0 0 -360 0 -360 -240 0 -240 0 0
120 0 120 -120 0 -120 0 0 -120 0 -120 -120 0 -120 0 0 120 0 120 -120 0 -120
0 0 -120 0 -120 120 0 120 0 0 -120 0 -120 120 0 120 0 0 -120 0 -120 120 0
120 0 0 -120 0 -120 -120 0 -120 0 0 -120 0 -120 -360 0 -360 0 0 120 0 120
-120 0 -120 0 0 120 0 120 -120 0 -120 0 0 240 0 240 120 0 120 0 0 -120 0
-120 120 0 120 0 0 360 0 360 240 0 240 0 0 120 0 120 -240 0 -240 0 0 120 0
120 240 0 240 0 0 120 0 120 -600 0 -600 0 0 -360 0 -360 120 0 120 0 0 -240
0 -240 -120 0 -120 0 0 -240 0 -240 120 0 120 0 0 -120 0 -120 -120 0 -120 0
0 -480 0 -480 120 0 120 0 0 -120 0 -120 -120 0 -120 0 0 -480 0 -480 120 0
120 0 0 360 0 360 120 0 120 0 0 -120 0 -120 120 0 120 0 0 120 0 120 120 0
120 0 0 -240 0 -240 -120 0 -120 0 0 -120 0 -120 120 0 120 0 0 120 0 120 240
0 240 0 0 -120 0 -120 120 0 120 0 0 120 0 120 240 0 240 0 0 -120 0 -120
-120 0 -120 0 0 -240 0 -240 360 0 360 0 0 -240 0 -240 -120 0 -120 0 0 120 0
120 -240 0 -240 0 0 -600 0 -600 240 0 240 0 0 240 0 240 -120 0 -120 0 0 240
0 240 120 0 120 0 0 -120 0 -120 120 0 120 0 0 120 0 120 120 0 120 0 0 -120
0 -120 120 0 120 0 0 -120 0 -120 -120 0 -120 0 0 -240 0 -240 120 0 120 0 0
120 0 120 120 0 120 0 0 -120 0 -120 240 0 240 0 0 240 0 240 120 0 120 0 0
120 0 120 360 0 360 0 0 -360 0 -360 120 0 120 0 0 120 0 120 120 0 120 0 0
-120 0 -120 480 0 480 0 0 120 0 120 240 0 240 0 0 120 0 120 -120 0 -120 0 0
120 0 120 240 0 240 0 0 -360 0 -360 120 0 120 0 0 120 0 120 120 0 120 0 0
-120 0 -120 120 0 120 0 0 120 0 120 -120 0 -120 0 0 240 0 240 240 0 240 0 0
240 0 240 -240 0 -240 0 0 120 0 120 120 0 120 0 0 120 0 120 120 0 120 0 0
240 0 240 -120 0 -120 0 0 -240 0 -240 -120 0 -120 0 0 120 0 120 -240 0 -240
0 0 120 0 120 240 0 240 0 0 120 0 120 120 0 120 0 0 120 0 120 120 0 120 0 0
120 0 120 -120 0 -120 0 0 120 0 120 -120 0 -120 0 0 120 0 120 120 0 120 0 0
120 0 120 120 0 120 0 0 120 0 120 -120 0 -120 0 0 120 0 120 -120 0 -120 0 0
120 0 120 120 0 120 0 0 120 0 120 120 0 120 0 0 120 0 120 -240 0 -240 0 0
-240 0 -240 -120 0 -120 0 0 -120 0 -120 120 0 120 0 0 -360 0 -360 -120 0
-120 0 0 240 0 240 -120 0 -120 0 0 120 0 120 -120 0 -120 0 0 120 0 120 120
0 120 0 0 120 0 120 -120 0 -120 0 0 120 0 120 240 0 240 0 0 120 0 120 120 0
120 0 0 120 0 120 120 0 120 0 0 120 0 120 120 0 120 0 0 120 0 120 -120 0
-120 0 0 120 0 120 -120 0 -120 0 0 -120 0 -120 -120 0 -120 0 0 120 0 120
-120 0 -120 0 0 -120 0 -120 120 0 120 0 0 -120 0 -120 -360 0 -360 0 0 120 0
120 120 0 120 0 0 120 0 120 -120 0 -120 0 0 -120 0 -120 -120 0 -120 0 0 120
0 120 -120 0 -120 0 0 240 0 240 -120 0 -120 0 0 -360 0 -360 -120 0 -120 0 0
120 0 120 -120 0 -120 0 0 120 0 120 120 0 120 0 0 120 0 120 -120 0 -120 0 0
-120 0 -120 -120 0 -120 0 0 240 0 240 360 0 360 0 0 120 0 120 -120 0 -120 0
0 360 0 360 120 0 120 0 0 -120 0 -120 120 0 120 0 0 120 0 120 -120 0 -120 0
0 120 0 120 -120 0 -120 0 0 -120 0 -120 -120 0 -120 0 0 -120 0 -120 -120 0
-120 0 0 -120 0 -120 120 0 120 0 0 -120 0 -120 -360 0 -360 0 0 -120 0 -120
-240 0 -240 0 0 120 0 120 120 0 120 0 0 120 0 120 -120 0 -120 0 0 240 0 240
120 0 120 0 0 -120 0 -120 120 0 120 0 0 -120 0 -120 120 0 120 0 0 120 0 120
-120 0 -120 0 0 120 0 120 240 0 240 0 0 120 0 120 -600 0 -600 0 0 -120 0
-120 -120 0 -120 0 0 120 0 120 -120 0 -120 0 0 -120 0 -120 -360 0 -360 0 0
-120 0 -120 -120 0 -120 0 0 240 0 240 -120 0 -120 0 0 -120z m1440 -480 l0
-360 120 0 120 0 0 120 0 120 120 0 120 0 0 -120 0 -120 -120 0 -120 0 0 -120
0 -120 120 0 120 0 0 -120 0 -120 -120 0 -120 0 0 -120 0 -120 -120 0 -120 0
0 -120 0 -120 -120 0 -120 0 0 120 0 120 -120 0 -120 0 0 120 0 120 120 0 120
0 0 -120 0 -120 120 0 120 0 0 120 0 120 120 0 120 0 0 120 0 120 -240 0 -240
0 0 120 0 120 -240 0 -240 0 0 240 0 240 240 0 240 0 0 120 0 120 120 0 120 0
0 -360z m-960 -240 l0 -120 -120 0 -120 0 0 120 0 120 120 0 120 0 0 -120z
m2160 -720 l0 -360 240 0 240 0 0 -120 0 -120 -120 0 -120 0 0 -120 0 -120
360 0 360 0 0 120 0 120 240 0 240 0 0 -120 0 -120 120 0 120 0 0 -120 0 -120
120 0 120 0 0 -120 0 -120 -120 0 -120 0 0 -120 0 -120 -120 0 -120 0 0 -120
0 -120 -120 0 -120 0 0 -120 0 -120 -120 0 -120 0 0 -120 0 -120 -120 0 -120
0 0 240 0 240 -240 0 -240 0 0 -240 0 -240 120 0 120 0 0 -120 0 -120 120 0
120 0 0 -120 0 -120 120 0 120 0 0 120 0 120 240 0 240 0 0 120 0 120 120 0
120 0 0 -120 0 -120 240 0 240 0 0 -240 0 -240 120 0 120 0 0 -120 0 -120 120
0 120 0 0 -360 0 -360 -120 0 -120 0 0 240 0 240 -120 0 -120 0 0 -240 0 -240
-120 0 -120 0 0 120 0 120 -120 0 -120 0 0 120 0 120 -120 0 -120 0 0 -120 0
-120 -120 0 -120 0 0 -120 0 -120 -240 0 -240 0 0 120 0 120 120 0 120 0 0
120 0 120 -120 0 -120 0 0 360 0 360 -120 0 -120 0 0 120 0 120 -120 0 -120 0
0 -360 0 -360 120 0 120 0 0 -120 0 -120 -120 0 -120 0 0 -360 0 -360 360 0
360 0 0 -120 0 -120 -120 0 -120 0 0 -120 0 -120 -120 0 -120 0 0 -120 0 -120
-120 0 -120 0 0 120 0 120 -120 0 -120 0 0 -120 0 -120 -240 0 -240 0 0 -120
0 -120 -120 0 -120 0 0 -240 0 -240 -240 0 -240 0 0 120 0 120 -360 0 -360 0
0 240 0 240 120 0 120 0 0 120 0 120 -240 0 -240 0 0 120 0 120 -120 0 -120 0
0 -120 0 -120 -120 0 -120 0 0 120 0 120 120 0 120 0 0 120 0 120 120 0 120 0
0 120 0 120 -240 0 -240 0 0 360 0 360 240 0 240 0 0 -120 0 -120 120 0 120 0
0 240 0 240 120 0 120 0 0 120 0 120 -240 0 -240 0 0 -120 0 -120 -120 0 -120
0 0 120 0 120 -120 0 -120 0 0 120 0 120 120 0 120 0 0 120 0 120 -240 0 -240
0 0 120 0 120 -120 0 -120 0 0 120 0 120 -120 0 -120 0 0 120 0 120 120 0 120
0 0 -120 0 -120 120 0 120 0 0 -120 0 -120 240 0 240 0 0 120 0 120 -120 0
-120 0 0 120 0 120 120 0 120 0 0 120 0 120 120 0 120 0 0 -120 0 -120 120 0
120 0 0 -120 0 -120 120 0 120 0 0 -120 0 -120 -120 0 -120 0 0 -240 0 -240
120 0 120 0 0 120 0 120 120 0 120 0 0 120 0 120 120 0 120 0 0 -120 0 -120
-120 0 -120 0 0 -120 0 -120 240 0 240 0 0 240 0 240 360 0 360 0 0 120 0 120
-240 0 -240 0 0 120 0 120 120 0 120 0 0 120 0 120 -120 0 -120 0 0 120 0 120
-120 0 -120 0 0 120 0 120 120 0 120 0 0 120 0 120 120 0 120 0 0 120 0 120
120 0 120 0 0 360 0 360 120 0 120 0 0 -360z m-4080 -960 l0 -120 -240 0 -240
0 0 120 0 120 240 0 240 0 0 -120z m6720 0 l0 -120 -120 0 -120 0 0 -120 0
-120 -120 0 -120 0 0 120 0 120 120 0 120 0 0 120 0 120 120 0 120 0 0 -120z
m-3600 -720 l0 -120 -120 0 -120 0 0 120 0 120 120 0 120 0 0 -120z m-3360
-720 l0 -120 -120 0 -120 0 0 120 0 120 120 0 120 0 0 -120z m1200 -240 l0
-120 120 0 120 0 0 -480 0 -480 -240 0 -240 0 0 -120 0 -120 120 0 120 0 0
-120 0 -120 -120 0 -120 0 0 120 0 120 -120 0 -120 0 0 360 0 360 120 0 120 0
0 120 0 120 120 0 120 0 0 120 0 120 -120 0 -120 0 0 120 0 120 120 0 120 0 0
-120z m-960 -360 l0 -240 120 0 120 0 0 -120 0 -120 -120 0 -120 0 0 120 0
120 -240 0 -240 0 0 120 0 120 120 0 120 0 0 120 0 120 120 0 120 0 0 -240z
m480 120 l0 -120 -120 0 -120 0 0 120 0 120 120 0 120 0 0 -120z m5520 -1920
l0 -360 -360 0 -360 0 0 360 0 360 360 0 360 0 0 -360z m720 0 l0 -120 -120 0
-120 0 0 120 0 120 120 0 120 0 0 -120z m-2160 -480 l0 -120 -360 0 -360 0 0
120 0 120 360 0 360 0 0 -120z m480 0 l0 -120 120 0 120 0 0 -120 0 -120 120
0 120 0 0 120 0 120 120 0 120 0 0 -120 0 -120 -120 0 -120 0 0 -240 0 -240
-480 0 -480 0 0 240 0 240 120 0 120 0 0 240 0 240 120 0 120 0 0 -120z m1680
-120 l0 -240 -240 0 -240 0 0 240 0 240 240 0 240 0 0 -240z m-3840 -600 l0
-120 -120 0 -120 0 0 120 0 120 120 0 120 0 0 -120z"/>
<path d="M5280 6600 l0 -120 -120 0 -120 0 0 -120 0 -120 240 0 240 0 0 -120
0 -120 -240 0 -240 0 0 -120 0 -120 240 0 240 0 0 -120 0 -120 -120 0 -120 0
0 -120 0 -120 120 0 120 0 0 120 0 120 120 0 120 0 0 120 0 120 480 0 480 0 0
-120 0 -120 120 0 120 0 0 120 0 120 120 0 120 0 0 120 0 120 -240 0 -240 0 0
120 0 120 -120 0 -120 0 0 -120 0 -120 -360 0 -360 0 0 120 0 120 -120 0 -120
0 0 240 0 240 -120 0 -120 0 0 -120z m480 -720 l0 -120 -120 0 -120 0 0 120 0
120 120 0 120 0 0 -120z"/>
<path d="M3120 5400 l0 -120 120 0 120 0 0 120 0 120 -120 0 -120 0 0 -120z"/>
<path d="M6240 5400 l0 -120 120 0 120 0 0 120 0 120 -120 0 -120 0 0 -120z"/>
<path d="M5280 4920 l0 -120 -240 0 -240 0 0 -120 0 -120 -120 0 -120 0 0
-120 0 -120 -120 0 -120 0 0 -120 0 -120 -120 0 -120 0 0 -120 0 -120 120 0
120 0 0 -120 0 -120 -360 0 -360 0 0 -120 0 -120 120 0 120 0 0 -120 0 -120
-120 0 -120 0 0 -240 0 -240 120 0 120 0 0 120 0 120 120 0 120 0 0 -120 0
-120 240 0 240 0 0 -120 0 -120 -120 0 -120 0 0 -120 0 -120 -120 0 -120 0 0
-120 0 -120 360 0 360 0 0 120 0 120 120 0 120 0 0 120 0 120 240 0 240 0 0
120 0 120 120 0 120 0 0 120 0 120 -120 0 -120 0 0 120 0 120 -120 0 -120 0 0
-120 0 -120 120 0 120 0 0 -120 0 -120 -240 0 -240 0 0 120 0 120 -120 0 -120
0 0 120 0 120 120 0 120 0 0 120 0 120 240 0 240 0 0 120 0 120 120 0 120 0 0
120 0 120 -120 0 -120 0 0 -120 0 -120 -240 0 -240 0 0 120 0 120 -120 0 -120
0 0 240 0 240 360 0 360 0 0 120 0 120 120 0 120 0 0 120 0 120 -120 0 -120 0
0 120 0 120 -120 0 -120 0 0 -120z m240 -240 l0 -120 -120 0 -120 0 0 120 0
120 120 0 120 0 0 -120z m-720 -960 l0 -120 -120 0 -120 0 0 -120 0 -120 120
0 120 0 0 -120 0 -120 -120 0 -120 0 0 -120 0 -120 120 0 120 0 0 -120 0 -120
120 0 120 0 0 -120 0 -120 -120 0 -120 0 0 120 0 120 -120 0 -120 0 0 120 0
120 -240 0 -240 0 0 120 0 120 240 0 240 0 0 120 0 120 -120 0 -120 0 0 120 0
120 120 0 120 0 0 120 0 120 120 0 120 0 0 -120z"/>
<path d="M3120 4440 l0 -120 120 0 120 0 0 120 0 120 -120 0 -120 0 0 -120z"/>
<path d="M6960 4440 l0 -120 -240 0 -240 0 0 -240 0 -240 240 0 240 0 0 120 0
120 120 0 120 0 0 240 0 240 -120 0 -120 0 0 -120z"/>
<path d="M7440 3720 l0 -120 120 0 120 0 0 120 0 120 -120 0 -120 0 0 -120z"/>
<path d="M3120 3480 l0 -120 120 0 120 0 0 120 0 120 -120 0 -120 0 0 -120z"/>
<path d="M2160 3720 l0 -120 120 0 120 0 0 120 0 120 -120 0 -120 0 0 -120z"/>
<path d="M6960 2280 l0 -120 120 0 120 0 0 120 0 120 -120 0 -120 0 0 -120z"/>
<path d="M6240 1320 l0 -120 120 0 120 0 0 120 0 120 -120 0 -120 0 0 -120z"/>
<path d="M6960 7800 l0 -840 840 0 840 0 0 840 0 840 -840 0 -840 0 0 -840z
m1440 0 l0 -600 -600 0 -600 0 0 600 0 600 600 0 600 0 0 -600z"/>
<path d="M7440 7800 l0 -360 360 0 360 0 0 360 0 360 -360 0 -360 0 0 -360z"/>
<path d="M2640 7200 l0 -240 120 0 120 0 0 240 0 240 -120 0 -120 0 0 -240z"/>
<path d="M2160 6120 l0 -120 120 0 120 0 0 120 0 120 -120 0 -120 0 0 -120z"/>
<path d="M1680 4920 l0 -120 120 0 120 0 0 120 0 120 -120 0 -120 0 0 -120z"/>
<path d="M720 1560 l0 -840 840 0 840 0 0 840 0 840 -840 0 -840 0 0 -840z
m1440 0 l0 -600 -600 0 -600 0 0 600 0 600 600 0 600 0 0 -600z"/>
<path d="M1200 1560 l0 -360 360 0 360 0 0 360 0 360 -360 0 -360 0 0 -360z"/>
<path d="M4800 840 l0 -120 120 0 120 0 0 120 0 120 -120 0 -120 0 0 -120z"/>
</g>
</g></svg>
